<mxfile host="Electron" agent="Mozilla/5.0 (Windows NT 10.0; Win64; x64) AppleWebKit/537.36 (KHTML, like Gecko) draw.io/26.1.1 Chrome/132.0.6834.210 Electron/34.3.3 Safari/537.36" version="26.1.1">
  <diagram name="Pagina-1" id="62BMtvsp9YEBddm1NaY9">
    <mxGraphModel dx="1880" dy="929" grid="1" gridSize="10" guides="1" tooltips="1" connect="1" arrows="1" fold="1" page="1" pageScale="1" pageWidth="827" pageHeight="1169" math="0" shadow="0">
      <root>
        <mxCell id="0" />
        <mxCell id="1" parent="0" />
        <mxCell id="oTF-lqR1usnprfrfNHWV-1" value="Utente" style="shape=umlActor;verticalLabelPosition=bottom;verticalAlign=top;html=1;outlineConnect=0;" vertex="1" parent="1">
          <mxGeometry x="240" y="650" width="30" height="60" as="geometry" />
        </mxCell>
        <mxCell id="oTF-lqR1usnprfrfNHWV-2" value="Amministratore" style="shape=umlActor;verticalLabelPosition=bottom;verticalAlign=top;html=1;outlineConnect=0;" vertex="1" parent="1">
          <mxGeometry x="600" y="650" width="30" height="60" as="geometry" />
        </mxCell>
        <mxCell id="oTF-lqR1usnprfrfNHWV-3" value="" style="endArrow=block;endSize=16;endFill=0;html=1;rounded=0;" edge="1" parent="1">
          <mxGeometry width="160" relative="1" as="geometry">
            <mxPoint x="580" y="680" as="sourcePoint" />
            <mxPoint x="280" y="680" as="targetPoint" />
          </mxGeometry>
        </mxCell>
        <mxCell id="oTF-lqR1usnprfrfNHWV-4" value="Accedi alla Piattaforma" style="ellipse;whiteSpace=wrap;html=1;" vertex="1" parent="1">
          <mxGeometry x="50" y="490" width="140" height="70" as="geometry" />
        </mxCell>
        <mxCell id="oTF-lqR1usnprfrfNHWV-5" value="Crea Nuova Utenza" style="ellipse;whiteSpace=wrap;html=1;" vertex="1" parent="1">
          <mxGeometry x="660" y="490" width="140" height="70" as="geometry" />
        </mxCell>
        <mxCell id="oTF-lqR1usnprfrfNHWV-6" value="Segnala un Issue" style="ellipse;whiteSpace=wrap;html=1;" vertex="1" parent="1">
          <mxGeometry x="185" y="370" width="140" height="70" as="geometry" />
        </mxCell>
        <mxCell id="oTF-lqR1usnprfrfNHWV-7" value="Specifica Priorità" style="ellipse;whiteSpace=wrap;html=1;" vertex="1" parent="1">
          <mxGeometry x="60" y="220" width="140" height="70" as="geometry" />
        </mxCell>
        <mxCell id="oTF-lqR1usnprfrfNHWV-8" value="Aggiungi Immagine" style="ellipse;whiteSpace=wrap;html=1;" vertex="1" parent="1">
          <mxGeometry x="300" y="221" width="140" height="70" as="geometry" />
        </mxCell>
        <mxCell id="oTF-lqR1usnprfrfNHWV-9" value="Persona non registrata" style="shape=umlActor;verticalLabelPosition=bottom;verticalAlign=top;html=1;" vertex="1" parent="1">
          <mxGeometry x="715" y="320" width="30" height="60" as="geometry" />
        </mxCell>
        <mxCell id="oTF-lqR1usnprfrfNHWV-10" value="Visualizza Riepilogo" style="ellipse;whiteSpace=wrap;html=1;" vertex="1" parent="1">
          <mxGeometry x="185" y="810" width="140" height="70" as="geometry" />
        </mxCell>
        <mxCell id="oTF-lqR1usnprfrfNHWV-11" value="Filtra Risultati" style="ellipse;whiteSpace=wrap;html=1;" vertex="1" parent="1">
          <mxGeometry x="50" y="970" width="140" height="70" as="geometry" />
        </mxCell>
        <mxCell id="oTF-lqR1usnprfrfNHWV-12" value="Ordina Risultati" style="ellipse;whiteSpace=wrap;html=1;" vertex="1" parent="1">
          <mxGeometry x="290" y="971" width="140" height="70" as="geometry" />
        </mxCell>
        <mxCell id="oTF-lqR1usnprfrfNHWV-13" value="Visualizza Dashboard" style="ellipse;whiteSpace=wrap;html=1;" vertex="1" parent="1">
          <mxGeometry x="660" y="810" width="140" height="70" as="geometry" />
        </mxCell>
        <mxCell id="oTF-lqR1usnprfrfNHWV-14" value="Aggiungi Etichetta" style="ellipse;whiteSpace=wrap;html=1;" vertex="1" parent="1">
          <mxGeometry x="420" y="811" width="140" height="70" as="geometry" />
        </mxCell>
        <mxCell id="oTF-lqR1usnprfrfNHWV-15" value="Visualizza Report Mensile" style="ellipse;whiteSpace=wrap;html=1;" vertex="1" parent="1">
          <mxGeometry x="430" y="485" width="150" height="80" as="geometry" />
        </mxCell>
        <mxCell id="oTF-lqR1usnprfrfNHWV-17" value="Team" style="shape=umlActor;verticalLabelPosition=bottom;verticalAlign=top;html=1;" vertex="1" parent="1">
          <mxGeometry x="580" y="220" width="30" height="60" as="geometry" />
        </mxCell>
        <mxCell id="oTF-lqR1usnprfrfNHWV-18" value="Svolgi Attività" style="ellipse;whiteSpace=wrap;html=1;" vertex="1" parent="1">
          <mxGeometry x="435" y="360" width="140" height="70" as="geometry" />
        </mxCell>
        <mxCell id="oTF-lqR1usnprfrfNHWV-19" value="" style="endArrow=none;html=1;edgeStyle=orthogonalEdgeStyle;rounded=0;" edge="1" parent="1" target="oTF-lqR1usnprfrfNHWV-4">
          <mxGeometry relative="1" as="geometry">
            <mxPoint x="230" y="680" as="sourcePoint" />
            <mxPoint x="240" y="670" as="targetPoint" />
          </mxGeometry>
        </mxCell>
        <mxCell id="oTF-lqR1usnprfrfNHWV-22" value="" style="endArrow=none;html=1;edgeStyle=orthogonalEdgeStyle;rounded=0;" edge="1" parent="1" source="oTF-lqR1usnprfrfNHWV-6">
          <mxGeometry relative="1" as="geometry">
            <mxPoint x="90" y="680" as="sourcePoint" />
            <mxPoint x="255" y="630" as="targetPoint" />
          </mxGeometry>
        </mxCell>
        <mxCell id="oTF-lqR1usnprfrfNHWV-23" value="" style="endArrow=none;html=1;edgeStyle=orthogonalEdgeStyle;rounded=0;" edge="1" parent="1" source="oTF-lqR1usnprfrfNHWV-10">
          <mxGeometry relative="1" as="geometry">
            <mxPoint x="100" y="690" as="sourcePoint" />
            <mxPoint x="255" y="740" as="targetPoint" />
          </mxGeometry>
        </mxCell>
        <mxCell id="oTF-lqR1usnprfrfNHWV-24" value="" style="endArrow=none;html=1;edgeStyle=orthogonalEdgeStyle;rounded=0;" edge="1" parent="1" source="oTF-lqR1usnprfrfNHWV-14">
          <mxGeometry relative="1" as="geometry">
            <mxPoint x="110" y="700" as="sourcePoint" />
            <mxPoint x="290" y="720" as="targetPoint" />
            <Array as="points">
              <mxPoint x="380" y="846" />
              <mxPoint x="380" y="720" />
            </Array>
          </mxGeometry>
        </mxCell>
        <mxCell id="oTF-lqR1usnprfrfNHWV-25" value="" style="endArrow=none;html=1;edgeStyle=orthogonalEdgeStyle;rounded=0;" edge="1" parent="1" source="oTF-lqR1usnprfrfNHWV-13">
          <mxGeometry relative="1" as="geometry">
            <mxPoint x="120" y="710" as="sourcePoint" />
            <mxPoint x="650" y="680" as="targetPoint" />
            <Array as="points">
              <mxPoint x="730" y="680" />
            </Array>
          </mxGeometry>
        </mxCell>
        <mxCell id="oTF-lqR1usnprfrfNHWV-26" value="" style="endArrow=none;html=1;edgeStyle=orthogonalEdgeStyle;rounded=0;" edge="1" parent="1" source="oTF-lqR1usnprfrfNHWV-15">
          <mxGeometry relative="1" as="geometry">
            <mxPoint x="130" y="720" as="sourcePoint" />
            <mxPoint x="580" y="660" as="targetPoint" />
            <Array as="points">
              <mxPoint x="510" y="660" />
            </Array>
          </mxGeometry>
        </mxCell>
        <mxCell id="oTF-lqR1usnprfrfNHWV-27" value="" style="endArrow=none;html=1;edgeStyle=orthogonalEdgeStyle;rounded=0;" edge="1" parent="1" source="oTF-lqR1usnprfrfNHWV-5">
          <mxGeometry relative="1" as="geometry">
            <mxPoint x="140" y="730" as="sourcePoint" />
            <mxPoint x="650" y="660" as="targetPoint" />
            <Array as="points">
              <mxPoint x="730" y="660" />
            </Array>
          </mxGeometry>
        </mxCell>
        <mxCell id="oTF-lqR1usnprfrfNHWV-28" value="" style="endArrow=none;html=1;edgeStyle=orthogonalEdgeStyle;rounded=0;" edge="1" parent="1" source="oTF-lqR1usnprfrfNHWV-18">
          <mxGeometry relative="1" as="geometry">
            <mxPoint x="150" y="740" as="sourcePoint" />
            <mxPoint x="570" y="250" as="targetPoint" />
            <Array as="points">
              <mxPoint x="505" y="250" />
            </Array>
          </mxGeometry>
        </mxCell>
        <mxCell id="oTF-lqR1usnprfrfNHWV-29" value="" style="endArrow=none;html=1;edgeStyle=orthogonalEdgeStyle;rounded=0;" edge="1" parent="1" source="oTF-lqR1usnprfrfNHWV-5">
          <mxGeometry relative="1" as="geometry">
            <mxPoint x="160" y="750" as="sourcePoint" />
            <mxPoint x="730" y="410" as="targetPoint" />
          </mxGeometry>
        </mxCell>
        <mxCell id="oTF-lqR1usnprfrfNHWV-30" value="«extend»" style="html=1;verticalAlign=bottom;endArrow=open;dashed=1;endSize=8;curved=0;rounded=0;" edge="1" parent="1" source="oTF-lqR1usnprfrfNHWV-12" target="oTF-lqR1usnprfrfNHWV-10">
          <mxGeometry x="-0.3815" y="-25" relative="1" as="geometry">
            <mxPoint x="660" y="840" as="sourcePoint" />
            <mxPoint x="580" y="840" as="targetPoint" />
            <mxPoint as="offset" />
          </mxGeometry>
        </mxCell>
        <mxCell id="oTF-lqR1usnprfrfNHWV-31" value="«extend»" style="html=1;verticalAlign=bottom;endArrow=open;dashed=1;endSize=8;curved=0;rounded=0;" edge="1" parent="1" source="oTF-lqR1usnprfrfNHWV-11" target="oTF-lqR1usnprfrfNHWV-10">
          <mxGeometry x="-0.3455" y="18" relative="1" as="geometry">
            <mxPoint x="348" y="983" as="sourcePoint" />
            <mxPoint x="287" y="888" as="targetPoint" />
            <mxPoint as="offset" />
          </mxGeometry>
        </mxCell>
        <mxCell id="oTF-lqR1usnprfrfNHWV-32" value="«extend»" style="html=1;verticalAlign=bottom;endArrow=open;dashed=1;endSize=8;curved=0;rounded=0;" edge="1" parent="1" source="oTF-lqR1usnprfrfNHWV-8" target="oTF-lqR1usnprfrfNHWV-6">
          <mxGeometry x="-0.0266" y="34" relative="1" as="geometry">
            <mxPoint x="358" y="993" as="sourcePoint" />
            <mxPoint x="297" y="898" as="targetPoint" />
            <mxPoint as="offset" />
          </mxGeometry>
        </mxCell>
        <mxCell id="oTF-lqR1usnprfrfNHWV-33" value="«extend»" style="html=1;verticalAlign=bottom;endArrow=open;dashed=1;endSize=8;curved=0;rounded=0;" edge="1" parent="1" source="oTF-lqR1usnprfrfNHWV-7" target="oTF-lqR1usnprfrfNHWV-6">
          <mxGeometry x="-0.2361" y="-31" relative="1" as="geometry">
            <mxPoint x="160" y="440" as="sourcePoint" />
            <mxPoint x="307" y="908" as="targetPoint" />
            <mxPoint as="offset" />
          </mxGeometry>
        </mxCell>
      </root>
    </mxGraphModel>
  </diagram>
</mxfile>
